<mxfile host="Electron" agent="Mozilla/5.0 (Windows NT 10.0; Win64; x64) AppleWebKit/537.36 (KHTML, like Gecko) draw.io/22.0.2 Chrome/114.0.5735.289 Electron/25.8.4 Safari/537.36" modified="2025-06-09T06:43:05.173Z" version="22.0.2" etag="qnXLkREvD7Uzy7Cc3dEM" type="device">
  <diagram name="Page-1" id="Sj07ARA41jCE1NBRt6u1">
    <mxGraphModel dx="1823" dy="877" grid="1" gridSize="10" guides="1" tooltips="1" connect="1" arrows="1" fold="1" page="1" pageScale="1" pageWidth="827" pageHeight="1169" math="0" shadow="0">
      <root>
        <mxCell id="0" />
        <mxCell id="1" parent="0" />
        <mxCell id="Ey2Ilw-SeUvDcQbxZ9TV-3" style="edgeStyle=orthogonalEdgeStyle;rounded=0;orthogonalLoop=1;jettySize=auto;html=1;exitX=0.5;exitY=1;exitDx=0;exitDy=0;fontFamily=Helvetica;fontSize=13;fillColor=#dae8fc;strokeColor=#6c8ebf;" parent="1" edge="1">
          <mxGeometry relative="1" as="geometry">
            <mxPoint x="782.5" y="1250" as="sourcePoint" />
            <mxPoint x="782.5" y="1250" as="targetPoint" />
          </mxGeometry>
        </mxCell>
        <mxCell id="Ey2Ilw-SeUvDcQbxZ9TV-6" value="&lt;font style=&quot;font-size: 14px;&quot;&gt;Login&lt;/font&gt;" style="rounded=1;whiteSpace=wrap;html=1;arcSize=40;fillColor=#dae8fc;strokeColor=#6c8ebf;" parent="1" vertex="1">
          <mxGeometry x="731.5" y="410" width="103" height="51" as="geometry" />
        </mxCell>
        <mxCell id="Ey2Ilw-SeUvDcQbxZ9TV-9" value="" style="shape=line;html=1;strokeWidth=6;strokeColor=#6c8ebf;fillColor=#dae8fc;" parent="1" vertex="1">
          <mxGeometry x="290" y="1030" width="990" height="10" as="geometry" />
        </mxCell>
        <mxCell id="Ey2Ilw-SeUvDcQbxZ9TV-10" value="" style="shape=line;html=1;strokeWidth=6;strokeColor=#6c8ebf;fillColor=#dae8fc;" parent="1" vertex="1">
          <mxGeometry x="310" y="525" width="950" height="10" as="geometry" />
        </mxCell>
        <mxCell id="Ey2Ilw-SeUvDcQbxZ9TV-16" value="&lt;span style=&quot;font-size: 14px;&quot;&gt;category&lt;/span&gt;" style="rounded=1;whiteSpace=wrap;html=1;arcSize=40;fillColor=#dae8fc;strokeColor=#6c8ebf;" parent="1" vertex="1">
          <mxGeometry x="477" y="630" width="90" height="50" as="geometry" />
        </mxCell>
        <mxCell id="Ey2Ilw-SeUvDcQbxZ9TV-17" value="&lt;div&gt;&lt;span style=&quot;font-size: 14px;&quot;&gt;&amp;nbsp;View Orders&lt;/span&gt;&lt;/div&gt;" style="rounded=1;whiteSpace=wrap;html=1;arcSize=40;fillColor=#dae8fc;strokeColor=#6c8ebf;" parent="1" vertex="1">
          <mxGeometry x="998" y="630" width="102" height="50" as="geometry" />
        </mxCell>
        <mxCell id="Ey2Ilw-SeUvDcQbxZ9TV-24" value="" style="edgeStyle=orthogonalEdgeStyle;html=1;verticalAlign=bottom;endArrow=open;endSize=8;strokeColor=#6c8ebf;rounded=0;fontSize=14;startArrow=none;fillColor=#dae8fc;entryX=0.5;entryY=0;entryDx=0;entryDy=0;" parent="1" target="Ey2Ilw-SeUvDcQbxZ9TV-73" edge="1">
          <mxGeometry relative="1" as="geometry">
            <mxPoint x="860.22" y="625" as="targetPoint" />
            <mxPoint x="861.19" y="535" as="sourcePoint" />
            <Array as="points" />
          </mxGeometry>
        </mxCell>
        <mxCell id="Ey2Ilw-SeUvDcQbxZ9TV-26" value="&lt;span style=&quot;font-size: 14px;&quot;&gt;books&lt;/span&gt;" style="rounded=1;whiteSpace=wrap;html=1;arcSize=40;fillColor=#dae8fc;strokeColor=#6c8ebf;" parent="1" vertex="1">
          <mxGeometry x="641.5" y="630" width="90" height="50" as="geometry" />
        </mxCell>
        <mxCell id="Ey2Ilw-SeUvDcQbxZ9TV-32" value="" style="edgeStyle=orthogonalEdgeStyle;html=1;verticalAlign=bottom;endArrow=open;endSize=8;strokeColor=#6c8ebf;rounded=0;fontSize=14;startArrow=none;fillColor=#dae8fc;exitX=0.5;exitY=1;exitDx=0;exitDy=0;entryX=0.406;entryY=0.508;entryDx=0;entryDy=0;entryPerimeter=0;" parent="1" source="Ey2Ilw-SeUvDcQbxZ9TV-6" target="Ey2Ilw-SeUvDcQbxZ9TV-10" edge="1">
          <mxGeometry relative="1" as="geometry">
            <mxPoint x="783" y="520" as="targetPoint" />
            <mxPoint x="782.71" y="480" as="sourcePoint" />
            <Array as="points">
              <mxPoint x="783" y="527" />
              <mxPoint x="783" y="527" />
            </Array>
          </mxGeometry>
        </mxCell>
        <mxCell id="Ey2Ilw-SeUvDcQbxZ9TV-33" value="" style="edgeStyle=orthogonalEdgeStyle;html=1;verticalAlign=bottom;endArrow=open;endSize=8;strokeColor=#6c8ebf;rounded=0;fontSize=14;startArrow=none;fillColor=#dae8fc;" parent="1" edge="1">
          <mxGeometry relative="1" as="geometry">
            <mxPoint x="782.71" y="410" as="targetPoint" />
            <mxPoint x="782.71" y="390" as="sourcePoint" />
            <Array as="points">
              <mxPoint x="782.71" y="371" />
            </Array>
          </mxGeometry>
        </mxCell>
        <mxCell id="Ey2Ilw-SeUvDcQbxZ9TV-67" value="" style="edgeStyle=orthogonalEdgeStyle;html=1;verticalAlign=bottom;endArrow=open;endSize=8;strokeColor=#6c8ebf;rounded=0;fontSize=14;startArrow=none;fillColor=#dae8fc;exitX=0.556;exitY=0.785;exitDx=0;exitDy=0;exitPerimeter=0;entryX=0.456;entryY=-0.007;entryDx=0;entryDy=0;entryPerimeter=0;" parent="1" source="Ey2Ilw-SeUvDcQbxZ9TV-9" target="Ey2Ilw-SeUvDcQbxZ9TV-68" edge="1">
          <mxGeometry relative="1" as="geometry">
            <mxPoint x="835.5" y="1100" as="targetPoint" />
            <mxPoint x="834.5" y="1040" as="sourcePoint" />
            <Array as="points" />
          </mxGeometry>
        </mxCell>
        <mxCell id="Ey2Ilw-SeUvDcQbxZ9TV-68" value="Logout" style="rounded=1;whiteSpace=wrap;html=1;arcSize=40;fillColor=#dae8fc;strokeColor=#6c8ebf;" parent="1" vertex="1">
          <mxGeometry x="800" y="1100" width="90" height="50" as="geometry" />
        </mxCell>
        <mxCell id="Ey2Ilw-SeUvDcQbxZ9TV-71" value="&lt;font style=&quot;font-size: 25px;&quot;&gt;Admin&lt;/font&gt;" style="text;html=1;align=center;verticalAlign=middle;resizable=0;points=[];autosize=1;strokeColor=none;fillColor=none;" parent="1" vertex="1">
          <mxGeometry x="738" y="330" width="90" height="40" as="geometry" />
        </mxCell>
        <mxCell id="Ey2Ilw-SeUvDcQbxZ9TV-72" value="&lt;span style=&quot;font-size: 14px;&quot;&gt;Customer&lt;/span&gt;" style="rounded=1;whiteSpace=wrap;html=1;arcSize=40;fillColor=#dae8fc;strokeColor=#6c8ebf;" parent="1" vertex="1">
          <mxGeometry x="310" y="630" width="90" height="50" as="geometry" />
        </mxCell>
        <mxCell id="Ey2Ilw-SeUvDcQbxZ9TV-73" value="&lt;div&gt;&lt;span style=&quot;font-size: 14px;&quot;&gt;Review&lt;/span&gt;&lt;/div&gt;" style="rounded=1;whiteSpace=wrap;html=1;arcSize=40;fillColor=#dae8fc;strokeColor=#6c8ebf;" parent="1" vertex="1">
          <mxGeometry x="810" y="630" width="102" height="50" as="geometry" />
        </mxCell>
        <mxCell id="Ey2Ilw-SeUvDcQbxZ9TV-74" value="&lt;div&gt;&lt;span style=&quot;font-size: 14px;&quot;&gt;View&amp;nbsp;&lt;/span&gt;&lt;/div&gt;&lt;div&gt;&lt;span style=&quot;font-size: 14px;&quot;&gt;Payment&lt;/span&gt;&lt;/div&gt;" style="rounded=1;whiteSpace=wrap;html=1;arcSize=40;fillColor=#dae8fc;strokeColor=#6c8ebf;" parent="1" vertex="1">
          <mxGeometry x="1170" y="630" width="102" height="50" as="geometry" />
        </mxCell>
        <mxCell id="Ey2Ilw-SeUvDcQbxZ9TV-75" value="&lt;span style=&quot;font-size: 14px;&quot;&gt;view Customer Details&lt;/span&gt;" style="rounded=1;whiteSpace=wrap;html=1;arcSize=40;fillColor=#dae8fc;strokeColor=#6c8ebf;" parent="1" vertex="1">
          <mxGeometry x="230" y="750" width="90" height="50" as="geometry" />
        </mxCell>
        <mxCell id="Ey2Ilw-SeUvDcQbxZ9TV-76" value="&lt;span style=&quot;font-size: 14px;&quot;&gt;Block Customer&lt;/span&gt;" style="rounded=1;whiteSpace=wrap;html=1;arcSize=40;fillColor=#dae8fc;strokeColor=#6c8ebf;" parent="1" vertex="1">
          <mxGeometry x="369" y="750" width="90" height="50" as="geometry" />
        </mxCell>
        <mxCell id="Ey2Ilw-SeUvDcQbxZ9TV-77" value="&lt;span style=&quot;font-size: 14px;&quot;&gt;add&lt;/span&gt;" style="rounded=1;whiteSpace=wrap;html=1;arcSize=40;fillColor=#dae8fc;strokeColor=#6c8ebf;" parent="1" vertex="1">
          <mxGeometry x="520" y="710" width="90" height="50" as="geometry" />
        </mxCell>
        <mxCell id="Ey2Ilw-SeUvDcQbxZ9TV-78" value="&lt;span style=&quot;font-size: 14px;&quot;&gt;view&lt;/span&gt;" style="rounded=1;whiteSpace=wrap;html=1;arcSize=40;fillColor=#dae8fc;strokeColor=#6c8ebf;" parent="1" vertex="1">
          <mxGeometry x="520" y="790" width="90" height="50" as="geometry" />
        </mxCell>
        <mxCell id="Ey2Ilw-SeUvDcQbxZ9TV-79" value="&lt;span style=&quot;font-size: 14px;&quot;&gt;update&lt;/span&gt;" style="rounded=1;whiteSpace=wrap;html=1;arcSize=40;fillColor=#dae8fc;strokeColor=#6c8ebf;" parent="1" vertex="1">
          <mxGeometry x="520" y="870" width="90" height="50" as="geometry" />
        </mxCell>
        <mxCell id="Ey2Ilw-SeUvDcQbxZ9TV-80" value="&lt;span style=&quot;font-size: 14px;&quot;&gt;delete&lt;/span&gt;" style="rounded=1;whiteSpace=wrap;html=1;arcSize=40;fillColor=#dae8fc;strokeColor=#6c8ebf;" parent="1" vertex="1">
          <mxGeometry x="520" y="950" width="90" height="50" as="geometry" />
        </mxCell>
        <mxCell id="Ey2Ilw-SeUvDcQbxZ9TV-81" value="&lt;span style=&quot;font-size: 14px;&quot;&gt;add&lt;/span&gt;" style="rounded=1;whiteSpace=wrap;html=1;arcSize=40;fillColor=#dae8fc;strokeColor=#6c8ebf;" parent="1" vertex="1">
          <mxGeometry x="680" y="710" width="90" height="50" as="geometry" />
        </mxCell>
        <mxCell id="Ey2Ilw-SeUvDcQbxZ9TV-82" value="&lt;span style=&quot;font-size: 14px;&quot;&gt;update&lt;/span&gt;" style="rounded=1;whiteSpace=wrap;html=1;arcSize=40;fillColor=#dae8fc;strokeColor=#6c8ebf;" parent="1" vertex="1">
          <mxGeometry x="680" y="870" width="90" height="50" as="geometry" />
        </mxCell>
        <mxCell id="Ey2Ilw-SeUvDcQbxZ9TV-83" value="&lt;span style=&quot;font-size: 14px;&quot;&gt;delete&lt;/span&gt;" style="rounded=1;whiteSpace=wrap;html=1;arcSize=40;fillColor=#dae8fc;strokeColor=#6c8ebf;" parent="1" vertex="1">
          <mxGeometry x="680" y="950" width="90" height="50" as="geometry" />
        </mxCell>
        <mxCell id="Ey2Ilw-SeUvDcQbxZ9TV-84" value="&lt;span style=&quot;font-size: 14px;&quot;&gt;view&lt;/span&gt;" style="rounded=1;whiteSpace=wrap;html=1;arcSize=40;fillColor=#dae8fc;strokeColor=#6c8ebf;" parent="1" vertex="1">
          <mxGeometry x="680" y="790" width="90" height="50" as="geometry" />
        </mxCell>
        <mxCell id="Ey2Ilw-SeUvDcQbxZ9TV-85" value="&lt;div&gt;&lt;span style=&quot;font-size: 14px;&quot;&gt;view&lt;/span&gt;&lt;/div&gt;" style="rounded=1;whiteSpace=wrap;html=1;arcSize=40;fillColor=#dae8fc;strokeColor=#6c8ebf;" parent="1" vertex="1">
          <mxGeometry x="868" y="710" width="102" height="50" as="geometry" />
        </mxCell>
        <mxCell id="Ey2Ilw-SeUvDcQbxZ9TV-88" value="&lt;div&gt;&lt;span style=&quot;font-size: 14px;&quot;&gt;verify&lt;/span&gt;&lt;/div&gt;" style="rounded=1;whiteSpace=wrap;html=1;arcSize=40;fillColor=#dae8fc;strokeColor=#6c8ebf;" parent="1" vertex="1">
          <mxGeometry x="870" y="790" width="102" height="50" as="geometry" />
        </mxCell>
        <mxCell id="Ey2Ilw-SeUvDcQbxZ9TV-90" value="" style="edgeStyle=orthogonalEdgeStyle;html=1;verticalAlign=bottom;endArrow=open;endSize=8;strokeColor=#6c8ebf;rounded=0;fontSize=14;startArrow=none;fillColor=#dae8fc;entryX=0.5;entryY=0;entryDx=0;entryDy=0;" parent="1" edge="1">
          <mxGeometry relative="1" as="geometry">
            <mxPoint x="360" y="632" as="targetPoint" />
            <mxPoint x="360.19000000000005" y="537" as="sourcePoint" />
            <Array as="points" />
          </mxGeometry>
        </mxCell>
        <mxCell id="Ey2Ilw-SeUvDcQbxZ9TV-91" value="" style="edgeStyle=orthogonalEdgeStyle;html=1;verticalAlign=bottom;endArrow=open;endSize=8;strokeColor=#6c8ebf;rounded=0;fontSize=14;startArrow=none;fillColor=#dae8fc;entryX=0.5;entryY=0;entryDx=0;entryDy=0;" parent="1" edge="1">
          <mxGeometry relative="1" as="geometry">
            <mxPoint x="519.29" y="630" as="targetPoint" />
            <mxPoint x="519.48" y="535" as="sourcePoint" />
            <Array as="points" />
          </mxGeometry>
        </mxCell>
        <mxCell id="Ey2Ilw-SeUvDcQbxZ9TV-92" value="" style="edgeStyle=orthogonalEdgeStyle;html=1;verticalAlign=bottom;endArrow=open;endSize=8;strokeColor=#6c8ebf;rounded=0;fontSize=14;startArrow=none;fillColor=#dae8fc;entryX=0.5;entryY=0;entryDx=0;entryDy=0;" parent="1" edge="1">
          <mxGeometry relative="1" as="geometry">
            <mxPoint x="686.15" y="630" as="targetPoint" />
            <mxPoint x="686.34" y="535" as="sourcePoint" />
            <Array as="points" />
          </mxGeometry>
        </mxCell>
        <mxCell id="Ey2Ilw-SeUvDcQbxZ9TV-93" value="" style="edgeStyle=orthogonalEdgeStyle;html=1;verticalAlign=bottom;endArrow=open;endSize=8;strokeColor=#6c8ebf;rounded=0;fontSize=14;startArrow=none;fillColor=#dae8fc;entryX=0.5;entryY=0;entryDx=0;entryDy=0;" parent="1" edge="1">
          <mxGeometry relative="1" as="geometry">
            <mxPoint x="1048.65" y="630" as="targetPoint" />
            <mxPoint x="1048.8400000000001" y="535" as="sourcePoint" />
            <Array as="points" />
          </mxGeometry>
        </mxCell>
        <mxCell id="Ey2Ilw-SeUvDcQbxZ9TV-94" value="" style="edgeStyle=orthogonalEdgeStyle;html=1;verticalAlign=bottom;endArrow=open;endSize=8;strokeColor=#6c8ebf;rounded=0;fontSize=14;startArrow=none;fillColor=#dae8fc;entryX=0.5;entryY=0;entryDx=0;entryDy=0;" parent="1" edge="1">
          <mxGeometry relative="1" as="geometry">
            <mxPoint x="1220.65" y="630" as="targetPoint" />
            <mxPoint x="1220.8400000000001" y="535" as="sourcePoint" />
            <Array as="points" />
          </mxGeometry>
        </mxCell>
        <mxCell id="Ey2Ilw-SeUvDcQbxZ9TV-100" value="" style="shape=line;html=1;strokeWidth=6;strokeColor=#6c8ebf;fillColor=#dae8fc;" parent="1" vertex="1">
          <mxGeometry x="260" y="710" width="190" height="10" as="geometry" />
        </mxCell>
        <mxCell id="Ey2Ilw-SeUvDcQbxZ9TV-101" value="" style="edgeStyle=orthogonalEdgeStyle;html=1;verticalAlign=bottom;endArrow=open;endSize=8;strokeColor=#6c8ebf;rounded=0;fontSize=14;startArrow=none;fillColor=#dae8fc;entryX=0.5;entryY=0;entryDx=0;entryDy=0;" parent="1" edge="1">
          <mxGeometry relative="1" as="geometry">
            <mxPoint x="354.71" y="715" as="targetPoint" />
            <mxPoint x="354.71" y="680" as="sourcePoint" />
            <Array as="points" />
          </mxGeometry>
        </mxCell>
        <mxCell id="Ey2Ilw-SeUvDcQbxZ9TV-102" value="" style="edgeStyle=orthogonalEdgeStyle;html=1;verticalAlign=bottom;endArrow=open;endSize=8;strokeColor=#6c8ebf;rounded=0;fontSize=14;startArrow=none;fillColor=#dae8fc;entryX=0.5;entryY=0;entryDx=0;entryDy=0;" parent="1" edge="1">
          <mxGeometry relative="1" as="geometry">
            <mxPoint x="413" y="752.5" as="targetPoint" />
            <mxPoint x="413" y="717.5" as="sourcePoint" />
            <Array as="points" />
          </mxGeometry>
        </mxCell>
        <mxCell id="Ey2Ilw-SeUvDcQbxZ9TV-103" value="" style="edgeStyle=orthogonalEdgeStyle;html=1;verticalAlign=bottom;endArrow=open;endSize=8;strokeColor=#6c8ebf;rounded=0;fontSize=14;startArrow=none;fillColor=#dae8fc;entryX=0.5;entryY=0;entryDx=0;entryDy=0;" parent="1" edge="1">
          <mxGeometry relative="1" as="geometry">
            <mxPoint x="274.92" y="752.5" as="targetPoint" />
            <mxPoint x="274.92" y="717.5" as="sourcePoint" />
            <Array as="points" />
          </mxGeometry>
        </mxCell>
        <mxCell id="Ey2Ilw-SeUvDcQbxZ9TV-104" value="" style="edgeStyle=orthogonalEdgeStyle;html=1;verticalAlign=bottom;endArrow=open;endSize=8;strokeColor=#6c8ebf;rounded=0;fontSize=14;startArrow=none;fillColor=#dae8fc;exitX=0.25;exitY=1;exitDx=0;exitDy=0;entryX=0.212;entryY=0.247;entryDx=0;entryDy=0;entryPerimeter=0;" parent="1" source="Ey2Ilw-SeUvDcQbxZ9TV-16" target="Ey2Ilw-SeUvDcQbxZ9TV-9" edge="1">
          <mxGeometry relative="1" as="geometry">
            <mxPoint x="500" y="960" as="targetPoint" />
            <mxPoint x="500" y="790" as="sourcePoint" />
            <Array as="points" />
          </mxGeometry>
        </mxCell>
        <mxCell id="Ey2Ilw-SeUvDcQbxZ9TV-107" value="" style="edgeStyle=orthogonalEdgeStyle;html=1;verticalAlign=bottom;endArrow=open;endSize=8;strokeColor=#6c8ebf;rounded=0;fontSize=14;startArrow=none;fillColor=#dae8fc;entryX=-0.008;entryY=0.406;entryDx=0;entryDy=0;entryPerimeter=0;" parent="1" target="Ey2Ilw-SeUvDcQbxZ9TV-77" edge="1">
          <mxGeometry relative="1" as="geometry">
            <mxPoint x="511.4761904761906" y="803" as="targetPoint" />
            <mxPoint x="500" y="730" as="sourcePoint" />
            <Array as="points" />
          </mxGeometry>
        </mxCell>
        <mxCell id="Ey2Ilw-SeUvDcQbxZ9TV-108" value="" style="edgeStyle=orthogonalEdgeStyle;html=1;verticalAlign=bottom;endArrow=open;endSize=8;strokeColor=#6c8ebf;rounded=0;fontSize=14;startArrow=none;fillColor=#dae8fc;entryX=-0.008;entryY=0.406;entryDx=0;entryDy=0;entryPerimeter=0;" parent="1" edge="1">
          <mxGeometry relative="1" as="geometry">
            <mxPoint x="519" y="810" as="targetPoint" />
            <mxPoint x="500" y="810" as="sourcePoint" />
            <Array as="points" />
          </mxGeometry>
        </mxCell>
        <mxCell id="Ey2Ilw-SeUvDcQbxZ9TV-109" value="" style="edgeStyle=orthogonalEdgeStyle;html=1;verticalAlign=bottom;endArrow=open;endSize=8;strokeColor=#6c8ebf;rounded=0;fontSize=14;startArrow=none;fillColor=#dae8fc;entryX=-0.008;entryY=0.406;entryDx=0;entryDy=0;entryPerimeter=0;" parent="1" edge="1">
          <mxGeometry relative="1" as="geometry">
            <mxPoint x="519" y="890" as="targetPoint" />
            <mxPoint x="500" y="890" as="sourcePoint" />
            <Array as="points" />
          </mxGeometry>
        </mxCell>
        <mxCell id="Ey2Ilw-SeUvDcQbxZ9TV-110" value="" style="edgeStyle=orthogonalEdgeStyle;html=1;verticalAlign=bottom;endArrow=open;endSize=8;strokeColor=#6c8ebf;rounded=0;fontSize=14;startArrow=none;fillColor=#dae8fc;entryX=-0.008;entryY=0.406;entryDx=0;entryDy=0;entryPerimeter=0;" parent="1" edge="1">
          <mxGeometry relative="1" as="geometry">
            <mxPoint x="519" y="970" as="targetPoint" />
            <mxPoint x="500" y="970" as="sourcePoint" />
            <Array as="points" />
          </mxGeometry>
        </mxCell>
        <mxCell id="Ey2Ilw-SeUvDcQbxZ9TV-111" value="" style="edgeStyle=orthogonalEdgeStyle;html=1;verticalAlign=bottom;endArrow=open;endSize=8;strokeColor=#6c8ebf;rounded=0;fontSize=14;startArrow=none;fillColor=#dae8fc;exitX=0.25;exitY=1;exitDx=0;exitDy=0;entryX=0.212;entryY=0.247;entryDx=0;entryDy=0;entryPerimeter=0;" parent="1" edge="1">
          <mxGeometry relative="1" as="geometry">
            <mxPoint x="660" y="1032" as="targetPoint" />
            <mxPoint x="660" y="680" as="sourcePoint" />
            <Array as="points" />
          </mxGeometry>
        </mxCell>
        <mxCell id="Ey2Ilw-SeUvDcQbxZ9TV-112" value="" style="edgeStyle=orthogonalEdgeStyle;html=1;verticalAlign=bottom;endArrow=open;endSize=8;strokeColor=#6c8ebf;rounded=0;fontSize=14;startArrow=none;fillColor=#dae8fc;exitX=0.25;exitY=1;exitDx=0;exitDy=0;entryX=0.212;entryY=0.247;entryDx=0;entryDy=0;entryPerimeter=0;" parent="1" edge="1">
          <mxGeometry relative="1" as="geometry">
            <mxPoint x="840" y="1032" as="targetPoint" />
            <mxPoint x="840" y="680" as="sourcePoint" />
            <Array as="points" />
          </mxGeometry>
        </mxCell>
        <mxCell id="Ey2Ilw-SeUvDcQbxZ9TV-113" value="" style="edgeStyle=orthogonalEdgeStyle;html=1;verticalAlign=bottom;endArrow=open;endSize=8;strokeColor=#6c8ebf;rounded=0;fontSize=14;startArrow=none;fillColor=#dae8fc;exitX=0.25;exitY=1;exitDx=0;exitDy=0;entryX=0.212;entryY=0.247;entryDx=0;entryDy=0;entryPerimeter=0;" parent="1" edge="1">
          <mxGeometry relative="1" as="geometry">
            <mxPoint x="1048.5" y="1030" as="targetPoint" />
            <mxPoint x="1048.5" y="678" as="sourcePoint" />
            <Array as="points" />
          </mxGeometry>
        </mxCell>
        <mxCell id="Ey2Ilw-SeUvDcQbxZ9TV-114" value="" style="edgeStyle=orthogonalEdgeStyle;html=1;verticalAlign=bottom;endArrow=open;endSize=8;strokeColor=#6c8ebf;rounded=0;fontSize=14;startArrow=none;fillColor=#dae8fc;exitX=0.25;exitY=1;exitDx=0;exitDy=0;entryX=0.212;entryY=0.247;entryDx=0;entryDy=0;entryPerimeter=0;" parent="1" edge="1">
          <mxGeometry relative="1" as="geometry">
            <mxPoint x="1220.5" y="1030" as="targetPoint" />
            <mxPoint x="1220.5" y="678" as="sourcePoint" />
            <Array as="points" />
          </mxGeometry>
        </mxCell>
        <mxCell id="Ey2Ilw-SeUvDcQbxZ9TV-115" value="" style="edgeStyle=orthogonalEdgeStyle;html=1;verticalAlign=bottom;endArrow=open;endSize=8;strokeColor=#6c8ebf;rounded=0;fontSize=14;startArrow=none;fillColor=#dae8fc;entryX=-0.008;entryY=0.406;entryDx=0;entryDy=0;entryPerimeter=0;" parent="1" edge="1">
          <mxGeometry relative="1" as="geometry">
            <mxPoint x="679" y="730" as="targetPoint" />
            <mxPoint x="660" y="730" as="sourcePoint" />
            <Array as="points" />
          </mxGeometry>
        </mxCell>
        <mxCell id="Ey2Ilw-SeUvDcQbxZ9TV-116" value="" style="edgeStyle=orthogonalEdgeStyle;html=1;verticalAlign=bottom;endArrow=open;endSize=8;strokeColor=#6c8ebf;rounded=0;fontSize=14;startArrow=none;fillColor=#dae8fc;entryX=-0.008;entryY=0.406;entryDx=0;entryDy=0;entryPerimeter=0;" parent="1" edge="1">
          <mxGeometry relative="1" as="geometry">
            <mxPoint x="679" y="810" as="targetPoint" />
            <mxPoint x="660" y="810" as="sourcePoint" />
            <Array as="points" />
          </mxGeometry>
        </mxCell>
        <mxCell id="Ey2Ilw-SeUvDcQbxZ9TV-118" value="" style="edgeStyle=orthogonalEdgeStyle;html=1;verticalAlign=bottom;endArrow=open;endSize=8;strokeColor=#6c8ebf;rounded=0;fontSize=14;startArrow=none;fillColor=#dae8fc;entryX=-0.008;entryY=0.406;entryDx=0;entryDy=0;entryPerimeter=0;" parent="1" edge="1">
          <mxGeometry relative="1" as="geometry">
            <mxPoint x="679" y="890" as="targetPoint" />
            <mxPoint x="660" y="890" as="sourcePoint" />
            <Array as="points" />
          </mxGeometry>
        </mxCell>
        <mxCell id="Ey2Ilw-SeUvDcQbxZ9TV-119" value="" style="edgeStyle=orthogonalEdgeStyle;html=1;verticalAlign=bottom;endArrow=open;endSize=8;strokeColor=#6c8ebf;rounded=0;fontSize=14;startArrow=none;fillColor=#dae8fc;entryX=-0.008;entryY=0.406;entryDx=0;entryDy=0;entryPerimeter=0;" parent="1" edge="1">
          <mxGeometry relative="1" as="geometry">
            <mxPoint x="679" y="970" as="targetPoint" />
            <mxPoint x="660" y="970" as="sourcePoint" />
            <Array as="points" />
          </mxGeometry>
        </mxCell>
        <mxCell id="Ey2Ilw-SeUvDcQbxZ9TV-120" value="" style="edgeStyle=orthogonalEdgeStyle;html=1;verticalAlign=bottom;endArrow=open;endSize=8;strokeColor=#6c8ebf;rounded=0;fontSize=14;startArrow=none;fillColor=#dae8fc;entryX=-0.008;entryY=0.406;entryDx=0;entryDy=0;entryPerimeter=0;" parent="1" edge="1">
          <mxGeometry relative="1" as="geometry">
            <mxPoint x="869" y="730" as="targetPoint" />
            <mxPoint x="840" y="730" as="sourcePoint" />
            <Array as="points" />
          </mxGeometry>
        </mxCell>
        <mxCell id="Ey2Ilw-SeUvDcQbxZ9TV-121" value="" style="edgeStyle=orthogonalEdgeStyle;html=1;verticalAlign=bottom;endArrow=open;endSize=8;strokeColor=#6c8ebf;rounded=0;fontSize=14;startArrow=none;fillColor=#dae8fc;entryX=-0.008;entryY=0.406;entryDx=0;entryDy=0;entryPerimeter=0;" parent="1" edge="1">
          <mxGeometry relative="1" as="geometry">
            <mxPoint x="869" y="730" as="targetPoint" />
            <mxPoint x="850" y="730" as="sourcePoint" />
            <Array as="points" />
          </mxGeometry>
        </mxCell>
        <mxCell id="Ey2Ilw-SeUvDcQbxZ9TV-122" value="" style="edgeStyle=orthogonalEdgeStyle;html=1;verticalAlign=bottom;endArrow=open;endSize=8;strokeColor=#6c8ebf;rounded=0;fontSize=14;startArrow=none;fillColor=#dae8fc;entryX=-0.008;entryY=0.406;entryDx=0;entryDy=0;entryPerimeter=0;" parent="1" edge="1">
          <mxGeometry relative="1" as="geometry">
            <mxPoint x="869" y="810" as="targetPoint" />
            <mxPoint x="840" y="810" as="sourcePoint" />
            <Array as="points" />
          </mxGeometry>
        </mxCell>
        <mxCell id="Ey2Ilw-SeUvDcQbxZ9TV-123" value="" style="edgeStyle=orthogonalEdgeStyle;html=1;verticalAlign=bottom;endArrow=open;endSize=8;strokeColor=#6c8ebf;rounded=0;fontSize=14;startArrow=none;fillColor=#dae8fc;exitX=0.5;exitY=1;exitDx=0;exitDy=0;entryX=0.014;entryY=0.661;entryDx=0;entryDy=0;entryPerimeter=0;" parent="1" source="Ey2Ilw-SeUvDcQbxZ9TV-75" target="Ey2Ilw-SeUvDcQbxZ9TV-9" edge="1">
          <mxGeometry relative="1" as="geometry">
            <mxPoint x="270" y="1040" as="targetPoint" />
            <mxPoint x="260" y="870" as="sourcePoint" />
            <Array as="points" />
          </mxGeometry>
        </mxCell>
        <mxCell id="Ey2Ilw-SeUvDcQbxZ9TV-125" value="" style="edgeStyle=orthogonalEdgeStyle;html=1;verticalAlign=bottom;endArrow=open;endSize=8;strokeColor=#6c8ebf;rounded=0;fontSize=14;startArrow=none;fillColor=#dae8fc;exitX=0.5;exitY=1;exitDx=0;exitDy=0;entryX=0.125;entryY=0.318;entryDx=0;entryDy=0;entryPerimeter=0;" parent="1" source="Ey2Ilw-SeUvDcQbxZ9TV-76" target="Ey2Ilw-SeUvDcQbxZ9TV-9" edge="1">
          <mxGeometry relative="1" as="geometry">
            <mxPoint x="429" y="1097" as="targetPoint" />
            <mxPoint x="400" y="860" as="sourcePoint" />
            <Array as="points" />
          </mxGeometry>
        </mxCell>
        <mxCell id="MQb6_mDJyoumXpXW76tA-1" value="&lt;div&gt;&lt;span style=&quot;font-size: 14px;&quot;&gt;delete&lt;/span&gt;&lt;/div&gt;" style="rounded=1;whiteSpace=wrap;html=1;arcSize=40;fillColor=#dae8fc;strokeColor=#6c8ebf;" vertex="1" parent="1">
          <mxGeometry x="868" y="870" width="102" height="50" as="geometry" />
        </mxCell>
        <mxCell id="MQb6_mDJyoumXpXW76tA-2" value="" style="edgeStyle=orthogonalEdgeStyle;html=1;verticalAlign=bottom;endArrow=open;endSize=8;strokeColor=#6c8ebf;rounded=0;fontSize=14;startArrow=none;fillColor=#dae8fc;entryX=-0.008;entryY=0.406;entryDx=0;entryDy=0;entryPerimeter=0;" edge="1" parent="1">
          <mxGeometry relative="1" as="geometry">
            <mxPoint x="868" y="894.71" as="targetPoint" />
            <mxPoint x="839" y="894.71" as="sourcePoint" />
            <Array as="points" />
          </mxGeometry>
        </mxCell>
      </root>
    </mxGraphModel>
  </diagram>
</mxfile>
